<svg width="24" height="24" viewBox="0 0 24 24" fill="none" xmlns="http://www.w3.org/2000/svg">
  <g clip-path="url(#clip0_803_2776)">
    <path d="M12 0C5.37253 0 0 5.37253 0 12C0 18.6275 5.37253 24 12 24C18.6275 24 24 18.6275 24 12C24 5.37253 18.6275 0 12 0Z" fill="#40B3E0"/>
    <path d="M17.8408 6.90302L15.6974 17.7095C15.6974 17.7095 15.3977 18.4589 14.5733 18.0992L9.62728 14.3072L7.82878 13.438L4.80122 12.4187C4.80122 12.4187 4.33659 12.2539 4.29159 11.8942C4.24659 11.5345 4.81622 11.3396 4.81622 11.3396L16.8515 6.6184C16.8515 6.6184 17.8407 6.18377 17.8407 6.90321" fill="white"/>
    <path d="M9.24656 17.5877C9.24656 17.5877 9.10219 17.5742 8.92219 17.0046C8.74247 16.4351 7.82812 13.4375 7.82812 13.4375L15.0973 8.82126C15.0973 8.82126 15.517 8.56645 15.502 8.82126C15.502 8.82126 15.5769 8.86626 15.352 9.07607C15.1273 9.28598 9.64172 14.2169 9.64172 14.2169" fill="#D2E5F1"/>
    <path d="M11.5226 15.7605L9.56634 17.5442C9.56634 17.5442 9.41334 17.6603 9.24609 17.5875L9.62072 14.2744" fill="#B5CFE4"/>
  </g>
  <defs>
    <clipPath id="clip0_803_2776">
      <rect width="24" height="24" fill="white"/>
    </clipPath>
  </defs>
</svg>
