<svg
  width="24"
  height="25"
  viewBox="0 0 24 25"
  fill="none"
  xmlns="http://www.w3.org/2000/svg"
>
  <g clip-path="url(#clip0_59_761)">
    <path d="M4.5 4.25L19.5 20.75" stroke="#474481" stroke-linecap="round"
          stroke-linejoin="round"/>
    <path
      d="M14.5219 15.275C13.8337 15.9054 12.9333 16.2535 12 16.25C11.2431 16.2499 10.504 16.0208 9.87975 15.5928C9.25552 15.1648 8.77542 14.5579 8.50256 13.8519C8.2297 13.1459 8.17686 12.3739 8.35098 11.6373C8.5251 10.9007 8.91803 10.2341 9.47812 9.72498"
      stroke="#474481" stroke-linecap="round" stroke-linejoin="round"/>
    <path
      d="M6.9375 6.93127C3.1125 8.86252 1.5 12.5 1.5 12.5C1.5 12.5 4.5 19.25 12 19.25C13.7574 19.2643 15.4929 18.8594 17.0625 18.0688"
      stroke="#474481" stroke-linecap="round" stroke-linejoin="round"/>
    <path
      d="M19.5563 16.3532C21.6 14.525 22.5 12.5 22.5 12.5C22.5 12.5 19.5 5.75002 12 5.75002C11.3498 5.74874 10.7007 5.80205 10.0594 5.9094"
      stroke="#474481" stroke-linecap="round" stroke-linejoin="round"/>
    <path
      d="M12.7031 8.81561C13.5006 8.96671 14.2273 9.37311 14.7735 9.97347C15.3198 10.5738 15.6559 11.3356 15.7312 12.1437"
      stroke="#474481" stroke-linecap="round" stroke-linejoin="round"/>
  </g>
  <defs>
    <clipPath id="clip0_59_761">
      <rect width="24" height="24" fill="white" transform="translate(0 0.5)"/>
    </clipPath>
  </defs>
</svg>
